<svg width="160" height="40" viewBox="0 0 160 40" fill="none" xmlns="http://www.w3.org/2000/svg">
<g clip-path="url(#clip0_1133_45)">
<mask id="mask0_1133_45" style="mask-type:luminance" maskUnits="userSpaceOnUse" x="0" y="0" width="160" height="40">
<path d="M160 0H0V40H160V0Z" fill="white"/>
</mask>
<g mask="url(#mask0_1133_45)">
<mask id="mask1_1133_45" style="mask-type:luminance" maskUnits="userSpaceOnUse" x="48" y="0" width="112" height="40">
<path d="M160 0H48V40H160V0Z" fill="white"/>
</mask>
<g mask="url(#mask1_1133_45)">
<path d="M140.664 0H132.664V40H140.664V28.2L150.497 40H159.997L147.664 25L157.33 13.3333H147.997L140.664 22.1839V0Z" fill="black"/>
<path d="M129.704 29.0404C128.381 35.3005 122.824 39.9987 116.17 39.9987C108.53 39.9987 102.336 33.8053 102.336 26.1654C102.336 18.5254 108.53 12.332 116.17 12.332C122.853 12.332 128.43 17.072 129.721 23.3737H121.496C120.563 21.1092 118.538 19.5404 116.191 19.5404C112.957 19.5404 110.336 22.5158 110.336 26.1862C110.336 29.8566 112.957 32.832 116.191 32.832C118.524 32.832 120.538 31.2824 121.479 29.0404H129.704Z" fill="black"/>
<path d="M95 10C97.7614 10 100 7.76142 100 5C100 2.23858 97.7614 0 95 0C92.2386 0 90 2.23858 90 5C90 7.76142 92.2386 10 95 10Z" fill="black"/>
<path d="M99 39.9987V13.332H91V39.9987H99Z" fill="black"/>
<path d="M86.3359 0H78.3359V40H86.3359V0Z" fill="black"/>
<path d="M75.3675 29.0404C74.0443 35.3005 68.4875 39.9987 61.8333 39.9987C54.1934 39.9987 48 33.8053 48 26.1654C48 18.5254 54.1934 12.332 61.8333 12.332C68.5169 12.332 74.0935 17.072 75.3849 23.3737H67.1598C66.2267 21.1092 64.2018 19.5404 61.8542 19.5404C58.621 19.5404 56 22.5158 56 26.1862C56 29.8566 58.621 32.832 61.8542 32.832C64.1874 32.832 66.2018 31.2824 67.1425 29.0404H75.3675Z" fill="black"/>
</g>
<mask id="mask2_1133_45" style="mask-type:luminance" maskUnits="userSpaceOnUse" x="0" y="0" width="40" height="40">
<path d="M40 0H0V40H40V0Z" fill="white"/>
</mask>
<g mask="url(#mask2_1133_45)">
<path fill-rule="evenodd" clip-rule="evenodd" d="M40 20C40 27.6667 27.6667 40 20 40C12.3333 40 0 27.6667 0 20C0 12.3333 12.3333 0 20 0C27.6667 0 40 12.3333 40 20ZM28 20C28 23 23 28 20 28C17 28 12 23 12 20C12 17 17 12 20 12C23 12 28 17 28 20Z" fill="#0077FF"/>
</g>
</g>
</g>
<defs>
<clipPath id="clip0_1133_45">
<rect width="160" height="40" fill="white"/>
</clipPath>
</defs>
</svg>
