<svg width="123" height="40" viewBox="0 0 123 40" fill="none" xmlns="http://www.w3.org/2000/svg">
<path d="M7.75509 0.049824H107.676C108.827 0.049824 109.842 0.524509 110.418 1.4385L120.547 17.8667C121.325 19.1538 121.192 20.7105 120.072 21.9989L105.812 38.4272C105.034 39.3073 104.018 39.8498 102.864 39.8498H3.24442C1.24705 39.8498 -0.210816 38.2916 0.0250363 36.3265L3.78835 3.57017C4.02715 1.57266 5.7533 0.046875 7.75215 0.046875H7.75362L7.75509 0.049824Z" fill="#00C0C9"/>
<path d="M59.2423 11.1298L54.0566 22.9671L51.362 11.1298H46.039L50.7811 28.2693L48.0187 33.8804H53.2724L64.4281 11.1298H59.2408H59.2423ZM9.02344 33.8804H13.7995L14.5837 27.4163C15.334 27.9973 16.7329 28.6477 18.5062 28.6477C24.034 28.6477 27.4111 23.7549 27.4111 18.4202C27.4111 13.8703 25.2619 10.6893 21.2362 10.6893C19.3244 10.6893 17.5849 11.3043 16.2553 12.401L16.4248 11.1358H11.7859L9.02344 33.8863V33.8819V33.8804ZM14.9935 24.0609L16.0519 15.6457C17.0749 14.8253 18.235 14.4823 19.258 14.5163C21.304 14.5488 22.4302 16.1926 22.4302 18.7587C22.4302 22.0772 20.6908 24.9168 17.7559 24.9168C16.8346 24.9168 15.7777 24.6093 14.9935 24.0609ZM28.3324 23.6174C28.297 26.3876 30.5509 28.6477 33.9943 28.6477C36.4177 28.6477 38.1896 27.6218 39.2125 26.4925L39.0077 28.2368H43.6466L44.7728 18.9671C45.3197 14.3833 43.8176 10.6538 37.9493 10.6538C35.5613 10.6538 32.6618 11.2023 31.0919 12.2281L30.6128 16.0595C31.8761 15.3737 34.3319 14.54 36.5828 14.54C39.2774 14.54 40.2341 15.8881 40.1309 17.3263H37.2653C33.1025 17.3263 28.3605 18.9331 28.3265 23.6204H28.3309L28.3324 23.6174ZM33.1438 23.239C33.1438 21.3913 35.293 20.7069 37.5085 20.7069H39.7595L39.4175 23.477C38.4622 24.2294 36.7568 25.0158 35.3225 25.0158C34.0268 25.0158 33.1393 24.2974 33.1393 23.2361H33.1408L33.1438 23.239ZM91.7132 20.3994C91.6459 24.6758 94.75 28.6433 101.094 28.6433C103.345 28.6433 105.257 28.1983 106.961 27.137L107.303 23.1001C105.906 23.9559 103.789 24.5368 101.948 24.5368C99.5245 24.5368 97.3413 23.4756 96.7296 21.0129H108.534C108.704 20.568 108.841 19.5067 108.841 18.4808C108.841 13.9664 106.349 10.6804 101.232 10.6804C96.1138 10.6804 91.7813 13.7255 91.7132 20.395V20.398V20.3994ZM96.762 18.1068C97.2407 15.8496 98.8754 14.5133 100.889 14.5133C102.903 14.5133 103.994 15.6427 103.994 17.4564C103.994 17.6618 103.994 17.9013 103.962 18.1068H96.7637H96.762ZM68.3168 28.2338L69.8867 15.7137C70.945 14.9953 72.1376 14.4143 73.1635 14.4143C74.4931 14.4143 75.1418 15.4077 74.9383 17.1164L73.5733 28.2353H78.3847L79.8868 16.0906L79.9192 15.7477C80.9776 15.0293 82.2055 14.4143 83.2287 14.4143C84.5584 14.4143 85.2066 15.4077 85.003 17.1164L83.6384 28.2353H88.4495L89.9521 16.0906C90.3618 12.7041 88.6207 10.6523 85.5175 10.6523C83.3683 10.6523 81.0822 11.8837 79.5477 13.013C78.8992 11.5068 77.4664 10.6523 75.4527 10.6523C73.4391 10.6523 71.4949 11.6457 69.9603 12.6716L70.1652 11.1328H65.6634L63.5142 28.2383H68.3256H68.3197L68.3168 28.2338Z" fill="white"/>
</svg>
